<?xml version="1.0" encoding="UTF-8"?>
<svg id="Capa_2" data-name="Capa 2" xmlns="http://www.w3.org/2000/svg" viewBox="0 0 247.4 187.5">
  <defs>
    <style>
      .cls-1 {
        fill: #6969ae;
        stroke-width: 0px;
      }
    </style>
  </defs>
  <g id="Capa_4" data-name="Capa 4">
    <path class="cls-1" d="m23.32,187.5h0c8.32,0,16.01-4.44,20.17-11.64L110.71,59.42c4.16-7.2,4.16-16.08,0-23.29l-11.72-20.3c-3.75-6.5-13.14-6.5-16.89,0L3.15,152.57c-8.96,15.52,2.24,34.93,20.17,34.93Z"/>
    <path class="cls-1" d="m158.54,187.5h0c-8.32,0-16.01-4.44-20.17-11.64L71.16,59.42c-4.16-7.2-4.16-16.08,0-23.29l11.72-20.3c3.75-6.5,13.14-6.5,16.89,0l78.94,136.73c8.96,15.52-2.24,34.93-20.17,34.93Z"/>
    <path class="cls-1" d="m215.3,186.29h13.78c5.84,0,10.64-4.63,10.84-10.48l.33-9.63c.21-6.13-4.7-11.21-10.84-11.21h-14.11c-5.99,0-10.84,4.85-10.84,10.84v9.63c0,5.99,4.85,10.84,10.84,10.84Z"/>
    <path class="cls-1" d="m222.35,143.8h0c7.66,0,14.11-7.09,14.99-16.5l9.96-106.54c1.03-11.06-5.97-20.77-14.99-20.77h-19.92c-9.02,0-16.02,9.71-14.99,20.77l9.96,106.54c.88,9.4,7.32,16.5,14.99,16.5Z"/>
  </g>
</svg>